<?xml version="1.0" encoding="utf-8"?>
<!-- Generator: Adobe Illustrator 22.0.1, SVG Export Plug-In . SVG Version: 6.00 Build 0)  -->
<svg version="1.1" id="Layer_1" xmlns="http://www.w3.org/2000/svg" xmlns:xlink="http://www.w3.org/1999/xlink" x="0px" y="0px"
	 viewBox="0 0 420 60" style="enable-background:new 0 0 420 60;" xml:space="preserve">
<style type="text/css">
	.st0{fill:#1C5630;}
	.st1{fill:#A0CE11;}
	.st2{fill:#FFFFFF;}
	.st3{font-family:'Lato-Black';}
	.st4{font-size:34.8302px;}
	.st5{font-family:'Lato-Bold';}
	.st6{font-size:12.9266px;}
</style>
<g>
	<g>
		<g>
			<path class="st0" d="M304.2424,51.597c-0.8311,0-1.6233,0-2.4035,0c0-1.8063,0-3.5945,0-5.3966
				c-0.4994,1.7875-0.9998,3.5786-1.5061,5.3906c-0.6494,0-1.2957,0-1.9637,0c-0.486-1.7413-0.9702-3.4763-1.4544-5.2112
				c-0.0121,0.0028-0.0241,0.0055-0.0362,0.0083c0,1.7257,0,3.4514,0,5.2017c-0.7917,0-1.5935,0-2.4254,0
				c0-2.9018,0-5.7986,0-8.7447c0.7791,0,1.5443,0,2.3094,0c1.0612,0,1.06,0.0004,1.3402,1.0095
				c0.3961,1.427,0.7943,2.8534,1.2783,4.3001c0.0418-0.1202,0.0905-0.2385,0.1244-0.3609c0.4236-1.529,0.8505-3.0571,1.2619-4.5893
				c0.0723-0.2694,0.1882-0.3718,0.4777-0.3663c0.9888,0.0185,1.9781,0.0071,2.9974,0.0071
				C304.2424,45.7736,304.2424,48.6709,304.2424,51.597z"/>
			<path class="st0" d="M236.7405,46.1846c-0.8525,0-1.6698,0.0071-2.4866-0.0116c-0.0772-0.0018-0.1891-0.1547-0.2199-0.2569
				c-0.2325-0.7739-0.703-1.166-1.4506-1.1845c-0.6433-0.0159-1.1761,0.369-1.4185,1.0798c-0.3107,0.9113-0.3203,1.8462-0.0704,2.77
				c0.206,0.7614,0.7528,1.1457,1.5277,1.1479c0.7145,0.002,1.1826-0.3867,1.4096-1.169c0.0283-0.0974,0.0615-0.1933,0.0937-0.2938
				c0.8862,0,1.7548,0,2.623,0c0.0227,1.6432-1.364,3.2028-3.0822,3.499c-0.8354,0.144-1.6648,0.1185-2.4798-0.1013
				c-1.7649-0.4761-2.9216-1.9532-3.0364-3.833c-0.0696-1.1394,0.0386-2.243,0.6515-3.24c0.7678-1.249,1.9028-1.8967,3.3593-1.9621
				c1.3419-0.0602,2.6042,0.1651,3.5905,1.1854C236.3744,44.4591,236.6345,45.2624,236.7405,46.1846z"/>
			<path class="st0" d="M285.9055,45.8262c0-1.0358,0-1.9827,0-2.9549c0.8203,0,1.6083,0,2.426,0c0,2.9095,0,5.8065,0,8.7229
				c-0.7336,0-1.4437,0-2.1768,0c-0.0122-0.2435-0.0235-0.4687-0.0351-0.6986c-0.0524,0.0124-0.0854,0.0099-0.0966,0.0243
				c-0.7173,0.924-1.6801,1.0353-2.7121,0.7527c-1.0479-0.287-1.6014-1.0729-1.8289-2.0923
				c-0.2552-1.1437-0.1584-2.2621,0.4481-3.2842c0.8367-1.41,2.546-1.6715,3.7813-0.6079
				C285.7476,45.7193,285.7893,45.744,285.9055,45.8262z M283.8122,48.4503c0.0357,0.2857,0.0445,0.4822,0.0868,0.6712
				c0.1299,0.5808,0.4176,0.8507,0.8997,0.8658c0.5111,0.0161,0.9174-0.2736,1.074-0.7957
				c0.1537-0.5125,0.1526-1.0289-0.0463-1.5331c-0.1692-0.429-0.4942-0.6618-0.922-0.6591
				c-0.4405,0.0028-0.752,0.2246-0.8984,0.6275C283.9013,47.9154,283.8625,48.2279,283.8122,48.4503z"/>
			<path class="st0" d="M332.2107,45.2356c0,0.3015,0,0.5539,0,0.8062c0.3764-0.4523,0.8144-0.7556,1.3565-0.9009
				c1.2484-0.3346,2.4826,0.2129,3.028,1.3951c0.583,1.2638,0.5753,2.5577-0.0294,3.8105
				c-0.5182,1.0733-1.8069,1.6809-2.9587,1.3943c-0.3945-0.0982-0.7445-0.3752-1.1499-0.589c0,0.8575,0,1.733,0,2.6263
				c-0.842,0-1.6321,0-2.4571,0c-0.0078-0.1315-0.0216-0.2583-0.0217-0.385c-0.0013-2.5801,0.0038-5.1602-0.0074-7.7402
				c-0.0014-0.3161,0.0763-0.4386,0.4114-0.4244C330.9777,45.2538,331.5748,45.2356,332.2107,45.2356z M334.562,48.4902
				c-0.0598-0.3364-0.0782-0.5987-0.1559-0.842c-0.1467-0.4597-0.4845-0.7127-0.9078-0.7287
				c-0.4238-0.016-0.7697,0.2162-0.942,0.678c-0.2128,0.5703-0.1964,1.1478,0.0467,1.7074c0.1518,0.3494,0.4322,0.5641,0.815,0.5742
				c0.3744,0.0098,0.703-0.1494,0.8629-0.4976C334.4179,49.0827,334.4826,48.7507,334.562,48.4902z"/>
			<path class="st0" d="M357.0608,45.236c-0.6174,0.6616-1.1544,1.2415-1.6964,1.8167c-0.617,0.6548-0.6177,0.6521-0.108,1.411
				c0.6316,0.9404,1.2613,1.8822,1.8906,2.8242c0.0562,0.0841,0.1039,0.1738,0.1943,0.3265c-0.7903,0-1.5275-0.0361-2.2591,0.0122
				c-0.5211,0.0344-0.8284-0.1228-1.0585-0.6019c-0.2687-0.5598-0.626-1.077-0.9542-1.6284
				c-0.3402,0.2039-0.5423,0.4372-0.5102,0.8527c0.0338,0.4371,0.0076,0.8788,0.0076,1.3414c-0.8342,0-1.6237,0-2.4472,0
				c0-2.899,0-5.7954,0-8.7186c0.804,0,1.5923,0,2.4368,0c0,1.39,0,2.7736,0,4.1572c0.0361,0.015,0.0721,0.0299,0.1082,0.0449
				c0.2405-0.292,0.5237-0.559,0.7133-0.8811c0.4682-0.7953,1.1208-1.097,2.0354-0.9692
				C355.9099,45.293,356.4242,45.236,357.0608,45.236z"/>
			<path class="st0" d="M270.8771,51.5774c-0.0416-0.1863-0.0811-0.363-0.1298-0.5813c-0.0949,0.0596-0.181,0.1043-0.2567,0.1625
				c-0.8994,0.6923-1.9193,0.7673-2.969,0.516c-0.8592-0.2057-1.3269-0.8386-1.3575-1.6893
				c-0.0341-0.9497,0.3349-1.583,1.2206-1.8605c0.6516-0.2042,1.3452-0.2736,2.0191-0.4082c0.292-0.0584,0.6004-0.0887,0.8647-0.211
				c0.1534-0.071,0.3332-0.3082,0.3201-0.4544c-0.0139-0.1546-0.2168-0.3562-0.3826-0.421
				c-0.4992-0.1953-0.9164-0.0302-1.2719,0.4191c-0.0475,0.0601-0.1461,0.1119-0.2216,0.1128
				c-0.7008,0.0085-1.4017,0.005-2.0941,0.005c-0.1241-0.6191,0.1324-1.2627,0.7432-1.5574
				c0.5154-0.2487,1.0971-0.4501,1.6613-0.486c0.8481-0.054,1.7186-0.0201,2.5574,0.1143c0.9636,0.1545,1.4367,0.7641,1.4721,1.7435
				c0.0432,1.1967,0.0214,2.3957,0.0576,3.5928c0.0099,0.3299,0.1264,0.6565,0.1977,1.0029
				C272.5823,51.5774,271.7494,51.5774,270.8771,51.5774z M270.5973,48.8327c-0.4781,0.1241-0.9335,0.2276-1.3793,0.3629
				c-0.329,0.0999-0.5474,0.3191-0.4865,0.6964c0.0597,0.3702,0.3558,0.4544,0.667,0.4806
				C270.2223,50.4419,270.7203,49.8153,270.5973,48.8327z"/>
			<path class="st0" d="M344.4513,51.5918c-0.744,0-1.5715,0-2.4039,0c-0.0489-0.2061-0.093-0.3923-0.1509-0.6362
				c-0.7705,0.7399-1.6865,0.8863-2.6655,0.8254c-1.3722-0.0853-2.157-1.119-1.8479-2.4422c0.136-0.582,0.4966-1.0029,1.0497-1.1631
				c0.7071-0.2048,1.4432-0.3089,2.1658-0.4615c0.2912-0.0615,0.5968-0.0991,0.8622-0.2208
				c0.1404-0.0643,0.2953-0.2916,0.2857-0.4347c-0.01-0.148-0.1835-0.3441-0.334-0.4126c-0.4901-0.223-0.9852-0.0467-1.3079,0.4006
				c-0.0432,0.0598-0.1395,0.1139-0.2119,0.1147c-0.7144,0.0085-1.4288,0.0051-2.1799,0.0051
				c-0.0038-0.598,0.1576-1.0985,0.6198-1.4254c0.3114-0.2203,0.6778-0.4035,1.0464-0.4948c1.0745-0.266,2.1668-0.28,3.2519-0.0447
				c1.1131,0.2415,1.5912,0.8172,1.6154,1.9705c0.0227,1.0812-0.0066,2.1635,0.0201,3.2446
				C344.2759,50.7981,344.3831,51.1772,344.4513,51.5918z M341.7357,48.8388c-0.4632,0.1222-0.9309,0.229-1.3873,0.3717
				c-0.3135,0.098-0.5149,0.3271-0.4618,0.6769c0.0518,0.3416,0.3302,0.4458,0.6281,0.4824
				C341.3717,50.4753,341.9377,49.7697,341.7357,48.8388z"/>
			<path class="st0" d="M278.3116,51.592c0-1.1245,0.0035-2.2282-0.0031-3.3318c-0.0012-0.2057-0.0175-0.4183-0.072-0.6152
				c-0.115-0.4164-0.3735-0.5944-0.8025-0.5963c-0.4673-0.0021-0.7461,0.1635-0.8668,0.5725
				c-0.0687,0.2328-0.0939,0.4853-0.0967,0.7294c-0.0106,0.9378-0.0034,1.8759-0.005,2.8138
				c-0.0002,0.1396-0.0124,0.2792-0.0194,0.4275c-0.8255,0-1.6141,0-2.4243,0c0-2.1143,0-4.2063,0-6.3271
				c0.7311,0,1.4539,0,2.2292,0c0,0.2814,0,0.5565,0,0.8315c0.0394,0.021,0.0788,0.042,0.1182,0.063
				c0.0353-0.0675,0.0603-0.1435,0.1076-0.2012c0.7219-0.8812,1.6642-1.0649,2.7146-0.8064
				c0.8991,0.2213,1.3672,0.8689,1.5136,1.7464c0.0723,0.4332,0.0775,0.8803,0.0816,1.3215
				c0.0106,1.1168,0.0035,2.2337,0.0035,3.3725C279.9516,51.592,279.1521,51.592,278.3116,51.592z"/>
			<path class="st0" d="M243.1788,49.0037c-0.0069,0.5699,0.2684,0.9826,0.7453,1.1734c0.483,0.1933,0.9356,0.0892,1.2837-0.2777
				c0.0817-0.0861,0.2009-0.1903,0.3051-0.1929c0.7018-0.017,1.4043-0.0089,2.1564-0.0089
				c-0.0874,0.4992-0.3394,0.8598-0.6592,1.1818c-1.1692,1.1774-4.2924,1.3447-5.5683-0.1839
				c-0.8548-1.0241-0.9632-2.2012-0.5678-3.4214c0.3868-1.1936,1.274-1.8919,2.4838-2.1273
				c1.3987-0.2723,2.678-0.0165,3.6646,1.1039c0.6114,0.6943,0.8171,1.5504,0.8836,2.4519c0.0218,0.2958-0.1454,0.304-0.3638,0.3033
				c-1.303-0.0047-2.606-0.0023-3.9089-0.0023C243.4921,49.0037,243.3508,49.0037,243.1788,49.0037z M245.405,47.6993
				c-0.0702-0.753-0.6026-1.1853-1.3255-1.0948c-0.5927,0.0742-0.9608,0.5281-0.8779,1.0948
				C243.9346,47.6993,244.6689,47.6993,245.405,47.6993z"/>
			<path class="st0" d="M312.1681,49.0014c-1.5851,0-3.1419,0-4.696,0c-0.0207,0.5644,0.2432,0.9774,0.7151,1.1699
				c0.5026,0.205,0.9478,0.1028,1.3098-0.2912c0.066-0.0719,0.1561-0.1711,0.2366-0.1726c0.7247-0.0134,1.4497-0.0078,2.2159-0.0078
				c-0.1241,0.5861-0.4261,0.9926-0.8332,1.3275c-1.2436,1.0228-3.7763,1.0427-5.0189,0.0224
				c-1.1446-0.9398-1.3385-2.1951-1.0133-3.5404c0.3179-1.3151,1.2349-2.0886,2.5385-2.3625
				c1.7252-0.3626,3.2558,0.2616,4.0276,1.6032C312.0413,47.4297,312.1953,48.1702,312.1681,49.0014z M309.6704,47.7019
				c-0.0194-0.7112-0.5451-1.1536-1.2596-1.1014c-0.6056,0.0442-0.9958,0.4953-0.9355,1.1014
				C308.1979,47.7019,308.9223,47.7019,309.6704,47.7019z"/>
			<path class="st0" d="M257.6168,49.0036c0.0193,0.6136,0.2942,1.0125,0.7835,1.1894c0.4914,0.1776,0.8984,0.0695,1.2709-0.326
				c0.066-0.0701,0.1602-0.1596,0.2427-0.161c0.7143-0.0127,1.4288-0.0073,2.2065-0.0073
				c-0.0506,0.1662-0.0748,0.2881-0.1237,0.3992c-0.2823,0.6415-0.7689,1.0816-1.4077,1.3402
				c-1.1289,0.457-2.2892,0.5111-3.4347,0.0987c-1.2689-0.4568-1.9407-1.4039-2.0181-2.7471
				c-0.1065-1.847,0.812-3.1611,2.4962-3.6135c2.4673-0.6626,4.7195,1.0233,4.6974,3.5173
				c-0.0008,0.0884-0.0155,0.1766-0.0279,0.3102c-0.7916,0-1.5709,0-2.3502,0C259.1736,49.0036,258.3955,49.0036,257.6168,49.0036z
				 M257.6103,47.6973c0.7379,0,1.475,0,2.2118,0c0.0155-0.6017-0.4386-1.0784-1.0307-1.0984
				C258.0457,46.5737,257.638,46.9454,257.6103,47.6973z"/>
			<path class="st0" d="M326.1589,51.7856c-1.2565,0.0143-2.173-0.1965-2.8947-0.9028c-1.0671-1.0443-1.1159-2.3368-0.736-3.6623
				c0.3553-1.2397,1.2754-1.9167,2.5234-2.0783c0.6207-0.0804,1.284-0.0842,1.893,0.0439c1.7312,0.3643,2.6886,1.8079,2.4804,3.6019
				C329.196,50.7622,327.9894,51.7838,326.1589,51.7856z M327.0336,48.4077c-0.0914-0.3606-0.1512-0.7208-0.2764-1.0566
				c-0.1356-0.3635-0.4047-0.5921-0.828-0.599c-0.4304-0.007-0.7342,0.1964-0.9026,0.5651
				c-0.3432,0.7514-0.3214,1.5179,0.0191,2.2652c0.1662,0.3648,0.4886,0.5456,0.8837,0.5305c0.3961-0.0151,0.7071-0.2215,0.8366-0.6
				C326.8864,49.1608,326.9444,48.7874,327.0336,48.4077z"/>
			<path class="st0" d="M363.6217,47.0451c-0.6732,0-1.3484,0.0054-2.0233-0.0077c-0.074-0.0014-0.1682-0.0952-0.2151-0.17
				c-0.2543-0.4042-0.6803-0.5684-1.104-0.3691c-0.1303,0.0613-0.2701,0.2269-0.289,0.3611
				c-0.015,0.1063,0.1236,0.3041,0.2367,0.346c0.3882,0.1438,0.796,0.2339,1.1948,0.35c0.4612,0.1343,0.9372,0.2356,1.3771,0.4213
				c0.6198,0.2617,1.0581,0.7016,1.1089,1.4302c0.0558,0.8011-0.2193,1.4564-0.925,1.8422
				c-0.4135,0.226-0.8885,0.3815-1.3542,0.4607c-0.8642,0.147-1.7404,0.144-2.5927-0.1136c-0.979-0.2959-1.5502-0.983-1.5977-1.9405
				c0.7149,0,1.4287-0.0066,2.1419,0.0095c0.0773,0.0018,0.1811,0.1216,0.2223,0.2101c0.2395,0.5144,0.9012,0.7384,1.3741,0.4212
				c0.1289-0.0864,0.2519-0.2961,0.243-0.4409c-0.0088-0.1428-0.1615-0.349-0.2977-0.3982
				c-0.4134-0.1493-0.8518-0.2277-1.2759-0.3496c-0.4237-0.1217-0.8623-0.2184-1.2586-0.4031
				c-1.1588-0.5401-1.3371-2.1371-0.3524-2.9613c0.5449-0.4561,1.2042-0.661,1.8821-0.6611c0.7332-0.0001,1.486,0.066,2.1944,0.2449
				C363.1526,45.5398,363.6449,46.2668,363.6217,47.0451z"/>
			<path class="st0" d="M251.5769,49.2373c0.3485-1.2897,0.675-2.4661,0.9794-3.6483c0.0713-0.2767,0.1936-0.3696,0.4789-0.3597
				c0.6353,0.022,1.272,0.0069,1.9683,0.0069c-0.0441,0.1718-0.0678,0.2932-0.1063,0.4097
				c-0.6199,1.8766-1.2463,3.7512-1.8575,5.6306c-0.0796,0.2448-0.1731,0.3534-0.4529,0.3457
				c-0.8064-0.0222-1.6138-0.0079-2.4352-0.0079c-0.7187-2.11-1.4305-4.1996-2.1595-6.3397c0.147-0.016,0.2553-0.0373,0.3638-0.0379
				c0.5605-0.0031,1.1219,0.019,1.6811-0.0083c0.3193-0.0156,0.4564,0.0876,0.5354,0.3995c0.2746,1.0839,0.5786,2.1603,0.873,3.2392
				C251.4686,48.952,251.5041,49.0338,251.5769,49.2373z"/>
			<path class="st0" d="M313.1953,43.268c0.8457,0,1.6244,0,2.4528,0c0,0.6372,0,1.2684,0,1.9623c0.4284,0,0.8092,0,1.2023,0
				c0,0.5042,0,0.9451,0,1.4367c-0.3731,0-0.7423,0-1.1815,0c0,0.381,0,0.7131,0,1.0452c0.0001,0.4433-0.0034,0.8866,0.0012,1.3298
				c0.0066,0.6294,0.1505,0.7689,0.7941,0.7827c0.1031,0.0022,0.2063,0.0003,0.3446,0.0003c0,0.6007,0,1.1766,0,1.7616
				c-0.8436,0-1.6753,0.0459-2.499-0.0155c-0.5892-0.0439-0.9766-0.4359-1.0298-1.0503c-0.0515-0.5954-0.0635-1.1949-0.0743-1.7929
				c-0.0119-0.6617-0.0027-1.3238-0.0027-2.0269c-0.3084,0-0.576,0-0.9061,0c0-0.4509-0.0106-0.8625,0.0105-1.2724
				c0.0035-0.0675,0.1404-0.1715,0.2256-0.1828c0.2042-0.027,0.4144-0.0087,0.662-0.0087
				C313.1953,44.5788,313.1953,43.9457,313.1953,43.268z"/>
			<path class="st0" d="M237.5224,42.8637c0.8057,0,1.5839,0,2.3957,0c0,2.9042,0,5.7986,0,8.7218c-0.7838,0-1.5713,0-2.3957,0
				C237.5224,48.6975,237.5224,45.8049,237.5224,42.8637z"/>
			<path class="st0" d="M263.0768,42.8621c0.8098,0,1.5877,0,2.4005,0c0,2.9106,0,5.8045,0,8.7253c-0.7938,0-1.5811,0-2.4005,0
				C263.0768,48.6941,263.0768,45.8001,263.0768,42.8621z"/>
			<path class="st0" d="M345.2408,45.2639c0.7216,0,1.4441,0,2.2075,0c0,0.3662,0,0.7235,0,1.0808
				c0.4738-0.9427,1.1837-1.3912,2.2572-1.2649c0,0.8575,0,1.6833,0,2.5235c-0.1104-0.0191-0.199-0.0375-0.2885-0.0495
				c-0.9944-0.1325-1.6597,0.3915-1.7133,1.3934c-0.0389,0.7272-0.0227,1.4573-0.0305,2.1861
				c-0.0015,0.1411-0.0002,0.2822-0.0002,0.4516c-0.8246,0-1.6117,0-2.4321,0C345.2408,49.493,345.2408,47.3925,345.2408,45.2639z"
				/>
			<path class="st0" d="M317.6873,45.2405c0.6765,0,1.3509-0.0076,2.0244,0.0124c0.0634,0.0019,0.1644,0.1731,0.1741,0.2728
				c0.0249,0.2565,0.0083,0.517,0.0817,0.8036c0.0661-0.1124,0.1336-0.2239,0.1981-0.3373
				c0.3797-0.6681,0.9665-0.9643,1.7194-0.9265c0.0959,0.0048,0.2624,0.147,0.2646,0.2291
				c0.0206,0.7534,0.0121,1.5076,0.0121,2.2871c-0.2006-0.0159-0.3645-0.0388-0.5287-0.0404
				c-0.8747-0.0086-1.4146,0.4514-1.4715,1.3259c-0.0482,0.7401-0.0247,1.485-0.0323,2.2277
				c-0.0016,0.154-0.0002,0.308-0.0002,0.4906c-0.8264,0-1.6147,0-2.4417,0C317.6873,49.4929,317.6873,47.3919,317.6873,45.2405z"/>
		</g>
	</g>
	<g id="XMLID_53_">
		
			<ellipse id="XMLID_66_" transform="matrix(0.4843 -0.8749 0.8749 0.4843 -8.1765 35.191)" class="st1" cx="25.7642" cy="24.5316" rx="14.4225" ry="14.4226"/>
		<g id="XMLID_72_">
			<path id="XMLID_153_" class="st0" d="M38.6606,39.5196c-8.2646,7.1114-20.7729,6.1733-27.8843-2.0913
				S4.6029,16.6555,12.8675,9.5441c2.0228-1.7405,4.3269-3.0336,6.8479-3.8424c0.8278-0.2654,1.7144,0.1902,1.9798,1.0181
				c0.2666,0.8284-0.1889,1.7133-1.0181,1.9798c-2.1176,0.6793-4.0545,1.7664-5.7563,3.2307
				c-6.9482,5.9787-7.737,16.4965-1.7583,23.4447c5.9787,6.9482,16.4965,7.737,23.4447,1.7583
				c6.9486-5.9791,7.7374-16.4969,1.7587-23.4451c-2.6715-3.1048-6.3771-5.1076-10.4341-5.6396
				c-0.8624-0.1129-1.4694-0.9035-1.3561-1.7654c0.1133-0.8619,0.9043-1.4693,1.7654-1.3561
				c4.8259,0.6324,9.2334,3.0149,12.411,6.7077C47.8637,19.8995,46.9252,32.4082,38.6606,39.5196z"/>
		</g>
		<g id="XMLID_68_">
			<path id="XMLID_150_" class="st0" d="M52.3554,55.775c-2.371,2.0402-5.9592,1.7711-7.999-0.5995L33.0215,41.6619
				c-0.3128-0.3635-0.4432-0.8496-0.3534-1.3209c0.0895-0.4717,0.3881-0.8761,0.8141-1.0991
				c2.3009-1.2107,4.1354-2.7892,5.6766-4.8846c0.2831-0.3872,0.7285-0.6229,1.2082-0.6411
				c0.4794-0.0186,0.9406,0.1829,1.2534,0.5464l11.3349,13.5136C54.9951,50.147,54.726,53.7352,52.3554,55.775z M36.6369,41.037
				l10.1057,12.0852c0.9075,1.0546,2.5044,1.1744,3.5595,0.2665c1.0546-0.9075,1.1744-2.5044,0.2669-3.559L40.4633,37.7445
				C39.3207,39.0257,38.0716,40.0989,36.6369,41.037z"/>
		</g>
	</g>
	<g>
		<path class="st0" d="M17.8615,24.6344c0.0697-0.3804,0.1326-0.7621,0.2102-1.1409c0.281-1.3705,1.0272-2.4951,1.8929-3.5545
			c0.9388-1.1489,2.1034-2.0424,3.2911-2.9113c0.7653-0.5599,1.5194-1.1351,2.276-1.7069c0.1179-0.0891,0.2095-0.1567,0.3628-0.0402
			c1.3914,1.0572,2.8182,2.0704,4.1751,3.1698c1.2309,0.9974,2.2502,2.2069,2.9109,3.6606
			c1.1381,2.5041,0.9508,5.7262-1.2466,8.1992c-1.0787,1.214-2.4458,1.8738-3.9708,2.2842c-0.0594,0.016-0.1253,0.0075-0.2221,0.012
			c0-0.59,0-1.1643,0-1.7386c0-0.5594,0.01-0.5387,0.5047-0.7776c2.1254-1.0266,3.3072-2.4743,3.3126-4.9645
			c0.0031-1.4534-0.6439-2.7007-1.5755-3.7824c-1.038-1.2052-2.2943-2.1677-3.5961-3.0708
			c-0.1444-0.1002-0.2837-0.2077-0.4373-0.3205c-1.5455,1.1015-3.1046,2.2142-4.2901,3.7462
			c-0.7174,0.9271-1.2077,1.9743-1.2794,3.1587c-0.0975,1.6103,0.3656,3.035,1.6064,4.1273
			c0.6144,0.541,1.2817,1.0168,2.0883,1.2517c0.0537,0.0157,0.1166,0.1175,0.1173,0.1799c0.0082,0.7243,0.0052,1.4487,0.0052,2.1985
			c-0.0869-0.0057-0.1684,0.001-0.2434-0.0178c-2.9643-0.745-4.8637-2.5895-5.6868-5.5324
			c-0.0992-0.3548-0.1384-0.7264-0.2054-1.0902C17.8615,25.5274,17.8615,25.0809,17.8615,24.6344z"/>
		<path class="st0" d="M24.6944,34.9456c0-0.1176,0.0003-0.2265,0-0.3353c-0.0048-1.4595,0.0349-2.9209-0.0265-4.3781
			c-0.0703-1.6702-0.8231-3.0053-2.2339-3.9279c-0.2934-0.1919-0.6534-0.2819-1.0316-0.4392c0-0.6621,0-1.4115,0-2.2041
			c2.0483,0.0878,3.3475,1.2832,4.357,2.9092c0.9978-1.6793,2.3219-2.8614,4.4061-2.9288c0,0.768,0,1.5257,0,2.2978
			c-0.9741,0.1475-1.6746,0.6862-2.2444,1.44c-0.5642,0.7463-0.9385,1.5697-0.9644,2.5075
			c-0.0433,1.5698-0.0438,3.1407-0.0621,4.7112c-0.0013,0.1091-0.0002,0.2182-0.0002,0.3478
			C26.1554,34.9456,25.4444,34.9456,24.6944,34.9456z"/>
		<path class="st0" d="M25.5934,24.5849c-1.2671-0.0065-2.2116-0.9766-2.2028-2.2624c0.0084-1.2178,1.0039-2.1722,2.2535-2.1603
			c1.2118,0.0115,2.186,0.9977,2.1843,2.2112C27.8267,23.6146,26.8397,24.5913,25.5934,24.5849z"/>
	</g>
	
		<ellipse id="XMLID_69_" transform="matrix(0.757 -0.6534 0.6534 0.757 -7.1992 15.9629)" class="st2" cx="17.8615" cy="17.6603" rx="2.4416" ry="2.4416"/>
	<text transform="matrix(1 0 0 1 65.4179 35.7515)" class="st0 st3 st4">Critter Collector</text>
	<text transform="matrix(1 0 0 1 65.2021 51.2661)" class="st1 st5 st6">a Citizen Science Project by  </text>
</g>
</svg>
