<?xml version="1.0" encoding="utf-8"?>
<!-- Generator: Adobe Illustrator 22.0.1, SVG Export Plug-In . SVG Version: 6.00 Build 0)  -->
<svg version="1.1" id="Layer_1" xmlns="http://www.w3.org/2000/svg" xmlns:xlink="http://www.w3.org/1999/xlink" x="0px" y="0px"
	 viewBox="0 0 280 80" style="enable-background:new 0 0 280 80;" xml:space="preserve">
<style type="text/css">
	.st0{fill:#FFFFFF;}
</style>
<g>
	<g>
		<path class="st0" d="M15.5173,38.3249c0.1494-0.8159,0.2844-1.6347,0.4509-2.447c0.6027-2.9395,2.2033-5.3517,4.0601-7.6241
			c2.0137-2.4642,4.5116-4.3806,7.059-6.2444c1.6415-1.201,3.259-2.4348,4.8818-3.6611c0.253-0.1912,0.4493-0.3361,0.7782-0.0862
			c2.9845,2.2676,6.0447,4.4407,8.9551,6.7989c2.6401,2.1392,4.8265,4.7335,6.2436,7.8516
			c2.441,5.3709,2.0394,12.2821-2.6737,17.5864c-2.3136,2.6038-5.2459,4.0192-8.5168,4.8994
			c-0.1273,0.0343-0.2688,0.0161-0.4765,0.0257c0-1.2656,0-2.4973,0-3.729c0-1.1998,0.0214-1.1554,1.0824-1.6679
			c4.5588-2.2019,7.0935-5.3071,7.105-10.6483c0.0067-3.1175-1.381-5.7927-3.3792-8.1128
			c-2.2264-2.5851-4.9209-4.6494-7.7133-6.5865c-0.3097-0.2149-0.6086-0.4454-0.938-0.6874
			c-3.315,2.3626-6.6591,4.7491-9.2018,8.0351c-1.5387,1.9885-2.5903,4.2347-2.7441,6.775
			c-0.2091,3.4539,0.7842,6.5097,3.4455,8.8527c1.3179,1.1603,2.749,2.1808,4.4791,2.6847c0.1153,0.0336,0.2501,0.252,0.2516,0.3859
			c0.0176,1.5535,0.0112,3.1072,0.0112,4.7156c-0.1863-0.0123-0.3611,0.0022-0.5221-0.0383
			c-6.3581-1.5979-10.4321-5.5541-12.1975-11.8665c-0.2128-0.761-0.2968-1.5581-0.4405-2.3384
			C15.5173,40.2404,15.5173,39.2826,15.5173,38.3249z"/>
		<path class="st0" d="M264.8828,44.9092c-0.3514,0.6146-0.7772,1.101-1.5789,1.0747c-0.7592-0.025-1.3626-0.466-1.5307-1.1724
			c-0.1838-0.7722,0.1662-1.5382,0.8469-1.854c0.6743-0.3128,1.487-0.1268,1.9471,0.449c0.1101,0.1378,0.2107,0.2833,0.3157,0.4252
			C264.8828,44.1909,264.8828,44.5501,264.8828,44.9092z M264.6903,44.4104c0.0038-0.776-0.6323-1.4278-1.3869-1.4212
			c-0.7516,0.0066-1.4041,0.6785-1.392,1.4333c0.0122,0.7557,0.6198,1.3649,1.3723,1.3757
			C264.071,45.8095,264.6864,45.2024,264.6903,44.4104z"/>
		<path class="st0" d="M30.173,60.4413c0-0.2523,0.0007-0.4858-0.0001-0.7192c-0.0104-3.1305,0.0748-6.265-0.0568-9.3904
			c-0.1508-3.5824-1.7654-6.446-4.7914-8.4249c-0.6293-0.4116-1.4015-0.6047-2.2127-0.9421c0-1.4202,0-3.0275,0-4.7276
			c4.3934,0.1883,7.18,2.7523,9.3452,6.2398c2.1402-3.602,4.9801-6.1373,9.4505-6.282c0,1.6472,0,3.2723,0,4.9286
			c-2.0893,0.3163-3.5918,1.4719-4.814,3.0887c-1.21,1.6008-2.0131,3.3668-2.0686,5.3784c-0.0929,3.367-0.094,6.7365-0.1331,10.1049
			c-0.0027,0.234-0.0004,0.4681-0.0004,0.7459C33.3066,60.4413,31.7817,60.4413,30.173,60.4413z"/>
		<path class="st0" d="M169.7752,53.1356c-1.2715,0-2.4835,0-3.6771,0c0-2.7634,0-5.4992,0-8.2564
			c-0.764,2.7347-1.5296,5.4749-2.3042,8.2471c-0.9935,0-1.9823,0-3.0042,0c-0.7435-2.6641-1.4843-5.3184-2.2251-7.9726
			c-0.0185,0.0042-0.0369,0.0084-0.0554,0.0127c0,2.6401,0,5.2803,0,7.9581c-1.2112,0-2.4379,0-3.7106,0
			c0-4.4395,0-8.8713,0-13.3786c1.192,0,2.3626,0,3.5332,0c1.6236,0,1.6217,0.0005,2.0503,1.5445
			c0.606,2.1832,1.2152,4.3655,1.9556,6.5788c0.0639-0.1839,0.1384-0.3649,0.1902-0.5521c0.6481-2.3392,1.3011-4.677,1.9306-7.0212
			c0.1107-0.4121,0.288-0.5688,0.7309-0.5605c1.5127,0.0284,3.0264,0.0109,4.5858,0.0109
			C169.7752,44.2263,169.7752,48.6588,169.7752,53.1356z"/>
		<path class="st0" d="M66.5036,44.8551c-1.3042,0-2.5547,0.0109-3.8043-0.0178c-0.1182-0.0027-0.2894-0.2366-0.3364-0.3931
			c-0.3558-1.184-1.0755-1.7838-2.2192-1.8121c-0.9841-0.0243-1.7994,0.5645-2.1701,1.652c-0.4754,1.3942-0.49,2.8245-0.1077,4.2379
			c0.3151,1.1649,1.1517,1.7529,2.3372,1.7562c1.093,0.0031,1.8093-0.5916,2.1566-1.7885c0.0432-0.149,0.094-0.2957,0.1433-0.4495
			c1.3558,0,2.6847,0,4.013,0c0.0347,2.5139-2.0869,4.9-4.7155,5.3531c-1.2781,0.2203-2.547,0.1813-3.7939-0.155
			c-2.7001-0.7283-4.4698-2.9883-4.6455-5.8642c-0.1065-1.7431,0.0591-3.4317,0.9967-4.9569
			c1.1747-1.9109,2.9111-2.9018,5.1394-3.0018c2.053-0.0921,3.9842,0.2526,5.4931,1.8136
			C65.9434,42.2152,66.3414,43.4442,66.5036,44.8551z"/>
		<path class="st0" d="M141.7214,44.3068c0-1.5846,0-3.0333,0-4.5207c1.255,0,2.4605,0,3.7115,0c0,4.4513,0,8.8834,0,13.3452
			c-1.1224,0-2.2086,0-3.3303,0c-0.0187-0.3725-0.036-0.717-0.0536-1.0688c-0.0801,0.0189-0.1306,0.0151-0.1478,0.0371
			c-1.0975,1.4137-2.5705,1.5839-4.1493,1.1515c-1.6032-0.439-2.45-1.6414-2.798-3.201c-0.3904-1.7498-0.2424-3.4608,0.6855-5.0245
			c1.2801-2.1571,3.8951-2.5573,5.7851-0.9301C141.4798,44.1432,141.5436,44.181,141.7214,44.3068z M138.5189,48.3213
			c0.0546,0.437,0.0681,0.7377,0.1328,1.0268c0.1988,0.8886,0.6388,1.3014,1.3765,1.3246c0.782,0.0246,1.4036-0.4186,1.6432-1.2174
			c0.2352-0.7841,0.2334-1.574-0.0708-2.3455c-0.2588-0.6563-0.7561-1.0125-1.4105-1.0083
			c-0.6739,0.0043-1.1504,0.3437-1.3745,0.9601C138.6552,47.503,138.5958,47.9811,138.5189,48.3213z"/>
		<path class="st0" d="M212.564,43.4032c0,0.4613,0,0.8474,0,1.2335c0.5758-0.692,1.2459-1.156,2.0754-1.3783
			c1.9099-0.5119,3.7982,0.3256,4.6326,2.1344c0.892,1.9336,0.8802,3.9131-0.045,5.8297c-0.7927,1.6421-2.7643,2.5717-4.5265,2.1332
			c-0.6036-0.1502-1.1391-0.574-1.7593-0.9011c0,1.3119,0,2.6514,0,4.0179c-1.2882,0-2.497,0-3.7591,0
			c-0.0118-0.2012-0.0331-0.3951-0.0332-0.5891c-0.002-3.9473,0.0058-7.8946-0.0113-11.8418
			c-0.0021-0.4837,0.1167-0.671,0.6294-0.6493C210.6777,43.431,211.5912,43.4032,212.564,43.4032z M216.1613,48.3824
			c-0.0915-0.5146-0.1197-0.9159-0.2384-1.2883c-0.2244-0.7033-0.7412-1.0904-1.3889-1.1148
			c-0.6483-0.0244-1.1776,0.3307-1.4412,1.0372c-0.3256,0.8725-0.3004,1.756,0.0714,2.6121
			c0.2322,0.5346,0.6613,0.8631,1.2469,0.8784c0.5727,0.015,1.0755-0.2285,1.3201-0.7612
			C215.9409,49.289,216.0398,48.781,216.1613,48.3824z"/>
		<path class="st0" d="M250.5824,43.4038c-0.9445,1.0121-1.7661,1.8993-2.5953,2.7794c-0.9439,1.0017-0.945,0.9976-0.1653,2.1586
			c0.9663,1.4388,1.9296,2.8796,2.8924,4.3207c0.0859,0.1286,0.1588,0.2659,0.2972,0.4995c-1.2092,0-2.3369-0.0552-3.4561,0.0186
			c-0.7972,0.0526-1.2674-0.1878-1.6194-0.9208c-0.4111-0.8564-0.9577-1.6477-1.4598-2.4913
			c-0.5204,0.312-0.8297,0.6689-0.7805,1.3046c0.0518,0.6687,0.0116,1.3445,0.0116,2.0522c-1.2762,0-2.4842,0-3.744,0
			c0-4.4352,0-8.8664,0-13.3386c1.23,0,2.436,0,3.7281,0c0,2.1265,0,4.2433,0,6.3602c0.0552,0.0229,0.1103,0.0458,0.1655,0.0687
			c0.368-0.4468,0.8012-0.8553,1.0912-1.348c0.7162-1.2167,1.7146-1.6783,3.114-1.4827
			C248.8217,43.4911,249.6083,43.4038,250.5824,43.4038z"/>
		<path class="st0" d="M118.7293,53.1055c-0.0636-0.285-0.124-0.5554-0.1986-0.8893c-0.1452,0.0911-0.2769,0.1596-0.3927,0.2487
			c-1.3761,1.0592-2.9364,1.174-4.5423,0.7895c-1.3145-0.3147-2.03-1.2829-2.0768-2.5844
			c-0.0522-1.4529,0.5124-2.4218,1.8674-2.8464c0.9969-0.3124,2.0581-0.4185,3.089-0.6245c0.4468-0.0893,0.9186-0.1357,1.323-0.3228
			c0.2346-0.1086,0.5098-0.4716,0.4896-0.6951c-0.0213-0.2365-0.3317-0.5449-0.5853-0.6441
			c-0.7637-0.2987-1.4019-0.0462-1.9459,0.6411c-0.0728,0.0919-0.2234,0.1711-0.339,0.1726
			c-1.0721,0.013-2.1445,0.0077-3.2038,0.0077c-0.1899-0.9472,0.2026-1.9318,1.137-2.3826
			c0.7884-0.3805,1.6784-0.6887,2.5416-0.7436c1.2975-0.0826,2.6292-0.0308,3.9126,0.1749c1.4742,0.2363,2.1981,1.169,2.2521,2.6674
			c0.066,1.8309,0.0327,3.6652,0.0881,5.4966c0.0153,0.5047,0.1934,1.0044,0.3025,1.5344
			C121.3382,53.1055,120.0639,53.1055,118.7293,53.1055z M118.3013,48.9064c-0.7314,0.1899-1.4282,0.3482-2.1102,0.5553
			c-0.5034,0.1528-0.8374,0.4882-0.7443,1.0654c0.0914,0.5664,0.5443,0.6952,1.0204,0.7353
			C117.7275,51.3684,118.4894,50.4097,118.3013,48.9064z"/>
		<path class="st0" d="M231.291,53.1276c-1.1382,0-2.4042,0-3.6777,0c-0.0748-0.3154-0.1423-0.6002-0.2308-0.9734
			c-1.1788,1.132-2.5802,1.3559-4.0779,1.2628c-2.0993-0.1305-3.3-1.712-2.8271-3.7364c0.208-0.8904,0.7598-1.5343,1.6059-1.7794
			c1.0818-0.3134,2.208-0.4726,3.3134-0.7061c0.4456-0.0941,0.913-0.1517,1.3192-0.3378c0.2148-0.0984,0.4518-0.4461,0.4371-0.665
			c-0.0153-0.2264-0.2807-0.5265-0.511-0.6312c-0.7499-0.3411-1.5072-0.0714-2.001,0.6128
			c-0.066,0.0914-0.2134,0.1742-0.3241,0.1755c-1.0929,0.0129-2.186,0.0078-3.3351,0.0078
			c-0.0058-0.9148,0.2412-1.6806,0.9483-2.1808c0.4765-0.3371,1.0369-0.6174,1.6009-0.757c1.6439-0.407,3.315-0.4284,4.9751-0.0683
			c1.7029,0.3694,2.4344,1.2503,2.4714,3.0146c0.0347,1.6541-0.0101,3.31,0.0307,4.9639
			C231.0227,51.9134,231.1866,52.4933,231.291,53.1276z M227.1365,48.9158c-0.7087,0.1869-1.4242,0.3503-2.1225,0.5686
			c-0.4796,0.15-0.7877,0.5004-0.7064,1.0355c0.0793,0.5226,0.5052,0.682,0.9608,0.738
			C226.5796,51.4194,227.4453,50.34,227.1365,48.9158z"/>
		<path class="st0" d="M130.1035,53.1279c0-1.7203,0.0054-3.4089-0.0048-5.0974c-0.0019-0.3147-0.0269-0.6399-0.1101-0.9412
			c-0.176-0.637-0.5714-0.9093-1.2277-0.9123c-0.715-0.0033-1.1415,0.2501-1.3261,0.8759
			c-0.1051,0.3561-0.1437,0.7424-0.1479,1.1159c-0.0162,1.4348-0.0051,2.8699-0.0076,4.3049
			c-0.0004,0.2136-0.0189,0.4271-0.0297,0.654c-1.2629,0-2.4695,0-3.709,0c0-3.2347,0-6.4352,0-9.6799c1.1186,0,2.2244,0,3.4104,0
			c0,0.4306,0,0.8514,0,1.2722c0.0603,0.0321,0.1206,0.0643,0.1808,0.0964c0.0541-0.1033,0.0922-0.2196,0.1646-0.3079
			c1.1044-1.3482,2.546-1.6293,4.1531-1.2337c1.3756,0.3386,2.0917,1.3293,2.3157,2.6718c0.1106,0.6627,0.1185,1.3468,0.1249,2.0217
			c0.0163,1.7086,0.0054,3.4174,0.0054,5.1597C132.6125,53.1279,131.3893,53.1279,130.1035,53.1279z"/>
		<path class="st0" d="M76.3535,49.168c-0.0106,0.8719,0.4107,1.5032,1.1402,1.7951c0.739,0.2957,1.4314,0.1365,1.9639-0.4248
			c0.125-0.1318,0.3073-0.2912,0.4667-0.2951c1.0737-0.026,2.1484-0.0135,3.2991-0.0135c-0.1337,0.7637-0.5193,1.3154-1.0085,1.8081
			c-1.7887,1.8014-6.567,2.0573-8.519-0.2813c-1.3078-1.5668-1.4737-3.3677-0.8687-5.2344c0.5918-1.826,1.9491-2.8944,3.8-3.2546
			c2.14-0.4165,4.0971-0.0252,5.6065,1.6889c0.9354,1.0623,1.2501,2.3719,1.3518,3.7511c0.0334,0.4526-0.2224,0.4651-0.5565,0.4639
			c-1.9934-0.0072-3.9869-0.0035-5.9803-0.0034C76.8328,49.168,76.6167,49.168,76.3535,49.168z M79.7595,47.1725
			c-0.1073-1.152-0.922-1.8134-2.028-1.675c-0.9067,0.1135-1.4699,0.808-1.343,1.675
			C77.5098,47.1725,78.6333,47.1725,79.7595,47.1725z"/>
		<path class="st0" d="M181.9008,49.1645c-2.4251,0-4.8068,0-7.1845,0c-0.0316,0.8635,0.372,1.4954,1.0939,1.7898
			c0.7689,0.3136,1.45,0.1573,2.0039-0.4455c0.101-0.11,0.2388-0.2618,0.3619-0.2641c1.1087-0.0205,2.218-0.012,3.3901-0.012
			c-0.1898,0.8966-0.6518,1.5186-1.2748,2.031c-1.9026,1.5648-5.7774,1.5952-7.6784,0.0343
			c-1.7511-1.4379-2.0478-3.3583-1.5503-5.4164c0.4864-2.012,1.8892-3.1953,3.8836-3.6145
			c2.6394-0.5547,4.9812,0.4002,6.1619,2.4527C181.7067,46.76,181.9423,47.8928,181.9008,49.1645z M178.0795,47.1765
			c-0.0297-1.0881-0.834-1.7648-1.927-1.685c-0.9266,0.0677-1.5236,0.7577-1.4312,1.685
			C175.8268,47.1765,176.935,47.1765,178.0795,47.1765z"/>
		<path class="st0" d="M98.4424,49.1679c0.0295,0.9387,0.45,1.5491,1.1987,1.8196c0.7518,0.2717,1.3744,0.1063,1.9443-0.4987
			c0.101-0.1072,0.245-0.2441,0.3713-0.2464c1.0927-0.0194,2.186-0.0112,3.3757-0.0112c-0.0774,0.2542-0.1145,0.4408-0.1893,0.6107
			c-0.4319,0.9814-1.1763,1.6547-2.1537,2.0503c-1.7271,0.6991-3.5023,0.7819-5.2548,0.1511
			c-1.9412-0.6988-2.9691-2.1479-3.0875-4.2028c-0.1629-2.8257,1.2422-4.8362,3.8189-5.5283
			c3.7747-1.0138,7.2204,1.5655,7.1865,5.3811c-0.0012,0.1352-0.0236,0.2702-0.0426,0.4745c-1.2111,0-2.4033,0-3.5955,0
			C100.8241,49.1679,99.6337,49.1679,98.4424,49.1679z M98.4324,47.1694c1.1288,0,2.2566,0,3.3838,0
			c0.0237-0.9205-0.671-1.6498-1.5769-1.6804C99.0985,45.4504,98.4748,46.0191,98.4324,47.1694z"/>
		<path class="st0" d="M203.3053,53.424c-1.9223,0.0218-3.3245-0.3006-4.4286-1.3812c-1.6326-1.5977-1.7072-3.5751-1.126-5.603
			c0.5436-1.8966,1.9512-2.9324,3.8606-3.1797c0.9497-0.123,1.9644-0.1288,2.8961,0.0672c2.6485,0.5573,4.1133,2.766,3.7948,5.5106
			C207.9517,51.8583,206.1059,53.4213,203.3053,53.424z M204.6435,48.2562c-0.1399-0.5517-0.2313-1.1028-0.4229-1.6164
			c-0.2075-0.5562-0.6192-0.9059-1.2668-0.9165c-0.6584-0.0107-1.1232,0.3004-1.3809,0.8645
			c-0.525,1.1495-0.4917,2.3222,0.0292,3.4655c0.2543,0.5581,0.7475,0.8348,1.352,0.8116c0.606-0.0232,1.0818-0.3389,1.2799-0.918
			C204.4182,49.4084,204.507,48.8372,204.6435,48.2562z"/>
		<path class="st0" d="M32.1013,38.2188c-2.7177-0.0139-4.7436-2.0947-4.7247-4.8525c0.018-2.6121,2.1532-4.6591,4.8334-4.6337
			c2.5991,0.0246,4.6888,2.14,4.6851,4.7427C36.8915,36.1378,34.7744,38.2325,32.1013,38.2188z"/>
		<path class="st0" d="M260.6199,46.1715c-1.0299,0-2.063,0.0083-3.0955-0.0118c-0.1132-0.0022-0.2572-0.1457-0.3292-0.26
			c-0.389-0.6184-1.0408-0.8696-1.689-0.5647c-0.1994,0.0938-0.4132,0.3471-0.4422,0.5525
			c-0.0229,0.1627,0.1891,0.4652,0.3621,0.5293c0.5939,0.22,1.2178,0.3579,1.8279,0.5355c0.7056,0.2055,1.4338,0.3604,2.1068,0.6446
			c0.9483,0.4004,1.6188,1.0735,1.6964,2.188c0.0853,1.2255-0.3355,2.2282-1.4152,2.8184
			c-0.6325,0.3458-1.3593,0.5836-2.0717,0.7048c-1.3221,0.2248-2.6626,0.2203-3.9667-0.1738
			c-1.4978-0.4527-2.3717-1.5039-2.4443-2.9688c1.0938,0,2.1858-0.0101,3.277,0.0146c0.1182,0.0027,0.2771,0.186,0.3401,0.3214
			c0.3664,0.7869,1.3788,1.1297,2.1022,0.6444c0.1972-0.1323,0.3854-0.453,0.3718-0.6746c-0.0134-0.2184-0.247-0.5339-0.4554-0.6092
			c-0.6325-0.2284-1.3032-0.3484-1.9521-0.5348c-0.6482-0.1862-1.3193-0.3342-1.9255-0.6167
			c-1.7728-0.8263-2.0456-3.2695-0.5392-4.5304c0.8336-0.6977,1.8423-1.0113,2.8795-1.0115
			c1.1217-0.0002,2.2734,0.1009,3.3573,0.3747C259.9022,43.8686,260.6553,44.9809,260.6199,46.1715z"/>
		<path class="st0" d="M89.2019,49.5253c0.5332-1.9731,1.0327-3.773,1.4985-5.5816c0.109-0.4234,0.2962-0.5655,0.7327-0.5504
			c0.972,0.0336,1.946,0.0105,3.0113,0.0105c-0.0675,0.2629-0.1037,0.4486-0.1626,0.6268
			c-0.9484,2.8711-1.9067,5.7389-2.8419,8.6143c-0.1218,0.3745-0.2649,0.5407-0.6928,0.5289c-1.2337-0.034-2.469-0.012-3.7257-0.012
			c-1.0996-3.228-2.1885-6.425-3.3038-9.6992c0.2249-0.0244,0.3906-0.0571,0.5565-0.058c0.8575-0.0048,1.7164,0.029,2.5719-0.0127
			c0.4884-0.0238,0.6982,0.1341,0.8191,0.6112c0.4201,1.6582,0.8852,3.3051,1.3356,4.9556
			C89.0361,49.089,89.0904,49.214,89.2019,49.5253z"/>
		<path class="st0" d="M183.4722,40.393c1.2938,0,2.4852,0,3.7525,0c0,0.9749,0,1.9406,0,3.0021c0.6554,0,1.2379,0,1.8394,0
			c0,0.7713,0,1.4459,0,2.198c-0.5708,0-1.1357,0-1.8075,0c0,0.5829-0.0001,1.0909,0,1.599
			c0.0001,0.6781-0.0052,1.3563,0.0019,2.0344c0.01,0.9629,0.2302,1.1764,1.2149,1.1975c0.1578,0.0034,0.3157,0.0005,0.5272,0.0005
			c0,0.919,0,1.8,0,2.6951c-1.2906,0-2.563,0.0703-3.8232-0.0237c-0.9014-0.0672-1.4941-0.6669-1.5754-1.6069
			c-0.0788-0.9109-0.0972-1.828-0.1137-2.7429c-0.0182-1.0123-0.0042-2.0252-0.0042-3.1009c-0.4718,0-0.8813,0-1.3862,0
			c0-0.6899-0.0162-1.3195,0.0161-1.9467c0.0053-0.1033,0.2148-0.2625,0.3452-0.2797c0.3124-0.0412,0.6339-0.0133,1.0128-0.0133
			C183.4722,42.3983,183.4722,41.4298,183.4722,40.393z"/>
		<path class="st0" d="M67.6999,39.7745c1.2326,0,2.4233,0,3.6651,0c0,4.4432,0,8.8713,0,13.3436c-1.1991,0-2.4039,0-3.6651,0
			C67.6999,48.6997,67.6999,44.2741,67.6999,39.7745z"/>
		<path class="st0" d="M106.7956,39.772c1.239,0,2.4291,0,3.6726,0c0,4.453,0,8.8803,0,13.3489c-1.2145,0-2.419,0-3.6726,0
			C106.7956,48.6943,106.7956,44.2669,106.7956,39.772z"/>
		<path class="st0" d="M232.4988,43.4466c1.104,0,2.2093,0,3.3772,0c0,0.5602,0,1.1068,0,1.6535
			c0.7249-1.4423,1.811-2.1284,3.4533-1.9351c0,1.312,0,2.5752,0,3.8607c-0.169-0.0292-0.3045-0.0574-0.4414-0.0757
			c-1.5213-0.2028-2.5392,0.5989-2.6213,2.1318c-0.0596,1.1125-0.0348,2.2295-0.0466,3.3446
			c-0.0023,0.2159-0.0003,0.4318-0.0003,0.6909c-1.2616,0-2.4657,0-3.7209,0C232.4988,49.9165,232.4988,46.7031,232.4988,43.4466z"
			/>
		<path class="st0" d="M190.3446,43.4107c1.035,0,2.0667-0.0116,3.0972,0.019c0.0971,0.0029,0.2516,0.2648,0.2664,0.4174
			c0.0381,0.3924,0.0127,0.791,0.125,1.2294c0.1011-0.1719,0.2044-0.3426,0.303-0.516c0.581-1.0221,1.4786-1.4753,2.6306-1.4175
			c0.1466,0.0074,0.4014,0.2248,0.4049,0.3505c0.0315,1.1527,0.0185,2.3065,0.0185,3.499
			c-0.3069-0.0244-0.5577-0.0593-0.8089-0.0618c-1.3382-0.0131-2.1641,0.6906-2.2513,2.0285
			c-0.0738,1.1323-0.0378,2.2719-0.0494,3.4082c-0.0024,0.2356-0.0003,0.4713-0.0003,0.7505c-1.2644,0-2.4703,0-3.7357,0
			C190.3446,49.9165,190.3446,46.7021,190.3446,43.4107z"/>
		<path class="st0" d="M263.9618,45.1787c-0.2664-0.2254-0.4913-0.4157-0.7163-0.6059c-0.1453,0.2107-0.2906,0.4214-0.5595,0.8114
			c0-0.6658-0.0454-1.197,0.0429-1.7049c0.0155-0.0888,0.6039-0.1408,0.9077-0.0899c0.1516,0.0254,0.4,0.4254,0.3612,0.4788
			c-0.2341,0.3217-0.1024,0.6056-0.0139,0.9105C264.006,45.0554,263.9656,45.1502,263.9618,45.1787z M263.3139,43.5657
			c-0.1631,0.1985-0.3472,0.3307-0.3286,0.4212c0.0284,0.1381,0.2025,0.3501,0.3045,0.3445
			c0.1475-0.0082,0.2858-0.1828,0.428-0.2864C263.6068,43.9131,263.4956,43.7812,263.3139,43.5657z"/>
	</g>
</g>
</svg>
